<svg width="33" height="32" viewBox="0 0 33 32" fill="none" xmlns="http://www.w3.org/2000/svg">
<g clip-path="url(#clip0_282_137)">
<path d="M16.5 32C25.3366 32 32.5 24.8366 32.5 16C32.5 7.16344 25.3366 0 16.5 0C7.66344 0 0.5 7.16344 0.5 16C0.5 24.8366 7.66344 32 16.5 32Z" fill="#FFC200"/>
<path fill-rule="evenodd" clip-rule="evenodd" d="M27.7294 27.3957C24.7099 30.3719 20.6325 32.0278 16.3928 31.9996C12.1532 31.9713 8.09821 30.2612 5.11865 27.245C5.49971 26.1913 6.23981 25.3054 7.20901 24.743C7.86223 24.2601 8.57054 23.8565 9.31904 23.5407C8.18092 19.6298 11.2748 17.7072 12.4585 17.1537C12.4585 18.9592 14.1491 17.761 16.2472 17.7838C17.9746 17.803 21.3905 19.5417 21.3905 17.2479C23.2908 17.8102 25.362 21.4317 23.9365 23.6567C24.521 23.9425 25.0732 24.29 25.5836 24.6933C26.5816 25.3284 27.3373 26.2797 27.7294 27.3957Z" fill="#677079"/>
<path fill-rule="evenodd" clip-rule="evenodd" d="M12.944 20.0285L20.6695 20.0751V21.8548L20.6659 21.8822C20.6606 21.9628 20.6484 22.0428 20.6297 22.1214L20.6038 22.298L20.5882 22.3348C20.088 24.9621 17.8993 25.9775 16.5478 26.6848C15.1239 25.9091 13.1107 24.5116 12.9507 22.0391L12.944 22.0085V21.905C12.9429 21.8693 12.9422 21.8335 12.9419 21.7978C12.9419 21.8164 12.9434 21.834 12.944 21.8527V20.0285Z" fill="#F9DCA4"/>
<path opacity="0.11" fill-rule="evenodd" clip-rule="evenodd" d="M20.67 19.9958V22.0696C20.6685 22.2619 20.6521 22.4537 20.6208 22.6434C20.5816 22.8781 20.5156 23.1076 20.4241 23.3274C17.7398 25.3546 13.4628 23.6919 12.7798 20.2294L20.67 19.9958Z" fill="black"/>
<path fill-rule="evenodd" clip-rule="evenodd" d="M9.87438 13.0667C7.31646 13.7243 9.49121 16.8414 11.1 16.828C10.4512 15.6656 10.0349 14.3881 9.87438 13.0667ZM23.1989 13.0667C25.7568 13.7243 23.5821 16.8414 21.9728 16.8275C22.6217 15.6653 23.0382 14.388 23.1989 13.0667Z" fill="#F9DCA4"/>
<path fill-rule="evenodd" clip-rule="evenodd" d="M16.4137 5.88272C27.0405 5.88272 22.8991 22.6832 16.4137 22.6832C10.2881 22.6832 5.7869 5.88272 16.4137 5.88272Z" fill="#FFE8BE"/>
<path fill-rule="evenodd" clip-rule="evenodd" d="M11.3983 11.4459C11.4889 11.5453 11.5562 11.6637 11.595 11.7925C11.6339 11.9213 11.6434 12.0571 11.6228 12.1901C11.6023 12.323 11.5522 12.4496 11.4762 12.5607C11.4002 12.6717 11.3004 12.7642 11.1839 12.8316C10.4331 13.4493 10.4057 15.6034 10.4057 15.6034C10.1157 15.3155 10.1224 13.7735 9.49382 12.8823C8.86521 11.9912 8.44165 5.75585 11.957 3.4884C11.741 3.74249 11.5853 4.04219 11.5016 4.36503C11.4179 4.68786 11.4085 5.02546 11.4739 5.35248C11.4739 5.35248 13.9158 1.8506 17.9671 1.95157C17.6459 2.1267 17.3652 2.36753 17.1434 2.65838C16.9215 2.94923 16.7634 3.28356 16.6793 3.6396C16.6793 3.6396 20.2211 2.17837 23.1725 3.91662C22.4052 4.12872 21.6794 4.46962 21.0262 4.92478C22.4595 4.96413 23.8446 5.23028 24.889 6.15921C24.6643 6.23138 24.4562 6.34785 24.2772 6.50176C24.0982 6.65568 23.9519 6.8439 23.8469 7.05532C23.7418 7.26674 23.6802 7.49706 23.6657 7.73269C23.6512 7.96831 23.684 8.20446 23.7623 8.42717C24.2055 10.241 24.247 11.9285 23.8177 12.8357C23.3884 13.7429 23.186 13.1573 22.9173 15.0597C22.9041 15.1882 22.8612 15.3119 22.792 15.421C22.7228 15.5301 22.6292 15.6216 22.5185 15.6883C22.5082 15.826 22.7163 13.7434 22.1794 13.1889C21.6429 12.6348 21.98 11.9539 22.1944 11.5511C23.6908 8.74096 19.2093 7.46769 16.7596 7.4708C14.635 7.47339 9.51039 8.43908 11.3983 11.4459Z" fill="#8A5C42"/>
<path fill-rule="evenodd" clip-rule="evenodd" d="M10.7471 25.456C10.7626 25.4757 16.1415 32.4375 22.4649 25.3525C21.7011 27.4506 18.4069 29.1169 16.5226 29.1117C12.9239 29.1013 10.9324 26.212 10.7471 25.456Z" fill="#434955"/>
<path fill-rule="evenodd" clip-rule="evenodd" d="M19.3147 31.753C19.1024 31.7903 18.889 31.8229 18.6741 31.8524V27.2248C18.682 27.1473 18.7199 27.076 18.7797 27.0261C18.8395 26.9761 18.9165 26.9516 18.9941 26.9577C19.0719 26.9514 19.149 26.9759 19.2089 27.0259C19.2688 27.0758 19.3068 27.1472 19.3147 27.2248V31.753ZM14.2299 31.839C14.0152 31.8082 13.8017 31.7737 13.5894 31.7354V27.2248C13.5972 27.1473 13.6351 27.076 13.6949 27.0261C13.7547 26.9761 13.8317 26.9516 13.9094 26.9577C13.9872 26.9513 14.0644 26.9757 14.1245 27.0257C14.1845 27.0756 14.2225 27.1471 14.2304 27.2248L14.2299 31.839Z" fill="#E6E6E6"/>
</g>
<defs>
<clipPath id="clip0_282_137">
<rect width="32" height="32" fill="white" transform="translate(0.5)"/>
</clipPath>
</defs>
</svg>
