<svg width="16" height="16" viewBox="0 0 16 16" fill="none" xmlns="http://www.w3.org/2000/svg">
<path d="M10 6.66663C10.3956 6.66663 10.7822 6.54933 11.1111 6.32957C11.44 6.1098 11.6964 5.79745 11.8478 5.43199C11.9991 5.06654 12.0387 4.66441 11.9616 4.27645C11.8844 3.88848 11.6939 3.53212 11.4142 3.25241C11.1345 2.97271 10.7781 2.78223 10.3902 2.70506C10.0022 2.62789 9.60009 2.66749 9.23463 2.81887C8.86918 2.97024 8.55682 3.22659 8.33706 3.55549C8.1173 3.88438 8 4.27106 8 4.66663C8 5.19706 8.21071 5.70577 8.58579 6.08084C8.96086 6.45591 9.46957 6.66663 10 6.66663ZM10 3.99996C10.1319 3.99996 10.2607 4.03906 10.3704 4.11231C10.48 4.18557 10.5655 4.28969 10.6159 4.4115C10.6664 4.53332 10.6796 4.66737 10.6539 4.79669C10.6281 4.92601 10.5646 5.0448 10.4714 5.13803C10.3782 5.23127 10.2594 5.29476 10.1301 5.32048C10.0007 5.34621 9.8667 5.33301 9.74488 5.28255C9.62306 5.23209 9.51894 5.14664 9.44569 5.03701C9.37243 4.92737 9.33333 4.79848 9.33333 4.66663C9.33333 4.48982 9.40357 4.32025 9.52859 4.19522C9.65362 4.0702 9.82319 3.99996 10 3.99996Z" fill="#8C8C8C"/>
<path d="M14.6667 0H1.33333C0.979711 0 0.640573 0.140476 0.390524 0.390524C0.140476 0.640573 0 0.979711 0 1.33333V14.6667C0 15.0203 0.140476 15.3594 0.390524 15.6095C0.640573 15.8595 0.979711 16 1.33333 16H14.6667C15.0203 16 15.3594 15.8595 15.6095 15.6095C15.8595 15.3594 16 15.0203 16 14.6667V1.33333C16 0.979711 15.8595 0.640573 15.6095 0.390524C15.3594 0.140476 15.0203 0 14.6667 0ZM14.6667 14.6667H1.33333V10.6667L4.66667 7.33333L8.39333 11.06C8.64315 11.3083 8.98109 11.4477 9.33333 11.4477C9.68558 11.4477 10.0235 11.3083 10.2733 11.06L11.3333 10L14.6667 13.3333V14.6667ZM14.6667 11.4467L12.2733 9.05333C12.0235 8.805 11.6856 8.66561 11.3333 8.66561C10.9811 8.66561 10.6432 8.805 10.3933 9.05333L9.33333 10.1133L5.60667 6.38667C5.35685 6.13833 5.01891 5.99894 4.66667 5.99894C4.31442 5.99894 3.97648 6.13833 3.72667 6.38667L1.33333 8.78V1.33333H14.6667V11.4467Z" fill="#8C8C8C"/>
</svg>
