<svg width="22" height="22" viewBox="0 0 22 22" fill="none" xmlns="http://www.w3.org/2000/svg">
<path d="M7.7 22C7.40826 22 7.12847 21.8841 6.92218 21.6778C6.71589 21.4715 6.6 21.1917 6.6 20.9V17.6H2.2C1.61652 17.6 1.05695 17.3682 0.644365 16.9556C0.231785 16.5431 0 15.9835 0 15.4V2.2C0 1.61652 0.231785 1.05695 0.644365 0.644365C1.05695 0.231785 1.61652 0 2.2 0H19.8C20.3835 0 20.9431 0.231785 21.3556 0.644365C21.7682 1.05695 22 1.61652 22 2.2V15.4C22 15.9835 21.7682 16.5431 21.3556 16.9556C20.9431 17.3682 20.3835 17.6 19.8 17.6H13.09L9.02 21.681C8.8 21.89 8.525 22 8.25 22H7.7ZM8.8 15.4V18.788L12.188 15.4H19.8V2.2H2.2V15.4H8.8Z" fill="#8C8C8C"/>
</svg>
