<svg width="26" height="25" viewBox="0 0 26 25" fill="none" xmlns="http://www.w3.org/2000/svg">
<mask id="mask0_282_104" style="mask-type:luminance" maskUnits="userSpaceOnUse" x="0" y="0" width="26" height="25">
<path d="M25.5 0H0.5V25H25.5V0Z" fill="white"/>
</mask>
<g mask="url(#mask0_282_104)">
<path d="M22.5703 0H3.42969C1.81167 0 0.5 1.31167 0.5 2.92969V22.0703C0.5 23.6883 1.81167 25 3.42969 25H22.5703C24.1883 25 25.5 23.6883 25.5 22.0703V2.92969C25.5 1.31167 24.1883 0 22.5703 0Z" fill="#2C7865"/>
<path d="M17.8784 4.88281H20.4628L14.8167 11.3359L21.4589 20.1172H16.2581L12.1846 14.7914L7.52371 20.1172H4.93779L10.9768 13.2148L4.60498 4.88281H9.93777L13.6198 9.75078L17.8784 4.88281ZM16.9714 18.5703H18.4034L9.15964 6.34844H7.62292L16.9714 18.5703Z" fill="#FFF0DA"/>
</g>
</svg>
