<svg width="26" height="25" viewBox="0 0 26 25" fill="none" xmlns="http://www.w3.org/2000/svg">
<path d="M13 9.4C12.3869 9.4 11.7875 9.58181 11.2777 9.92244C10.7679 10.2631 10.3706 10.7472 10.136 11.3137C9.90134 11.8801 9.83995 12.5034 9.95957 13.1048C10.0792 13.7061 10.3744 14.2585 10.808 14.692C11.2415 15.1256 11.7939 15.4208 12.3952 15.5404C12.9966 15.66 13.6199 15.5987 14.1863 15.364C14.7528 15.1294 15.2369 14.7321 15.5776 14.2223C15.9182 13.7125 16.1 13.1131 16.1 12.5C16.1 12.0929 16.0198 11.6898 15.864 11.3137C15.7082 10.9376 15.4799 10.5958 15.192 10.308C14.9042 10.0201 14.5624 9.79176 14.1863 9.63597C13.8102 9.48018 13.4071 9.4 13 9.4ZM25.4125 6.3375C25.4059 5.3722 25.2282 4.41571 24.8875 3.5125C24.6366 2.85157 24.2484 2.25137 23.7485 1.75148C23.2486 1.2516 22.6484 0.863397 21.9875 0.6125C21.0843 0.27183 20.1278 0.0940761 19.1625 0.0874999C17.55 -8.3819e-08 17.075 0 13 0C8.925 0 8.45 -8.3819e-08 6.8375 0.0874999C5.8722 0.0940761 4.91571 0.27183 4.0125 0.6125C3.35157 0.863397 2.75137 1.2516 2.25148 1.75148C1.7516 2.25137 1.3634 2.85157 1.1125 3.5125C0.77183 4.41571 0.594076 5.3722 0.5875 6.3375C0.5 7.95 0.5 8.425 0.5 12.5C0.5 16.575 0.5 17.05 0.5875 18.6625C0.600955 19.6312 0.778468 20.5906 1.1125 21.5C1.36229 22.1579 1.75016 22.7546 2.25 23.25C2.74774 23.7529 3.34924 24.1411 4.0125 24.3875C4.91571 24.7282 5.8722 24.9059 6.8375 24.9125C8.45 25 8.925 25 13 25C17.075 25 17.55 25 19.1625 24.9125C20.1278 24.9059 21.0843 24.7282 21.9875 24.3875C22.6508 24.1411 23.2523 23.7529 23.75 23.25C24.2498 22.7546 24.6377 22.1579 24.8875 21.5C25.2278 20.5924 25.4056 19.6318 25.4125 18.6625C25.5 17.05 25.5 16.575 25.5 12.5C25.5 8.425 25.5 7.95 25.4125 6.3375ZM22.2375 16.3375C22.1974 17.1089 22.0328 17.8687 21.75 18.5875C21.5073 19.1871 21.1466 19.7318 20.6892 20.1892C20.2318 20.6466 19.6871 21.0073 19.0875 21.25C18.3619 21.517 17.5978 21.6647 16.825 21.6875C15.8375 21.6875 15.575 21.6875 13 21.6875C10.425 21.6875 10.1625 21.6875 9.175 21.6875C8.40216 21.6647 7.63811 21.517 6.9125 21.25C6.29263 21.0196 5.73285 20.6522 5.275 20.175C4.82208 19.7266 4.47231 19.1848 4.25 18.5875C3.98195 17.8626 3.83826 17.0977 3.825 16.325C3.825 15.3375 3.825 15.075 3.825 12.5C3.825 9.925 3.825 9.6625 3.825 8.675C3.83826 7.90228 3.98195 7.13736 4.25 6.4125C4.48035 5.79263 4.84784 5.23285 5.325 4.775C5.77542 4.32453 6.31658 3.97512 6.9125 3.75C7.63811 3.48301 8.40216 3.33526 9.175 3.3125C10.1625 3.3125 10.425 3.3125 13 3.3125C15.575 3.3125 15.8375 3.3125 16.825 3.3125C17.5978 3.33526 18.3619 3.48301 19.0875 3.75C19.7074 3.98035 20.2672 4.34784 20.725 4.825C21.1779 5.27344 21.5277 5.81517 21.75 6.4125C22.017 7.13811 22.1647 7.90216 22.1875 8.675C22.1875 9.6625 22.1875 9.925 22.1875 12.5C22.1875 15.075 22.275 15.3375 22.2375 16.325V16.3375ZM20.2375 7.0375C20.0887 6.63373 19.854 6.26705 19.5497 5.96277C19.2454 5.65848 18.8788 5.42383 18.475 5.275C17.9206 5.08283 17.3367 4.98974 16.75 5C15.775 5 15.5 5 13 5C10.5 5 10.225 5 9.25 5C8.66033 5.00576 8.07634 5.11579 7.525 5.325C7.12741 5.46707 6.76462 5.69214 6.46073 5.98525C6.15684 6.27836 5.91883 6.6328 5.7625 7.025C5.58097 7.58171 5.49229 8.16449 5.5 8.75C5.5 9.725 5.5 10 5.5 12.5C5.5 15 5.5 15.275 5.5 16.25C5.51239 16.839 5.62221 17.4219 5.825 17.975C5.97383 18.3788 6.20848 18.7454 6.51277 19.0497C6.81705 19.354 7.18373 19.5887 7.5875 19.7375C8.12083 19.9336 8.68207 20.0434 9.25 20.0625C10.225 20.0625 10.5 20.0625 13 20.0625C15.5 20.0625 15.775 20.0625 16.75 20.0625C17.3397 20.0567 17.9237 19.9467 18.475 19.7375C18.8788 19.5887 19.2454 19.354 19.5497 19.0497C19.854 18.7454 20.0887 18.3788 20.2375 17.975C20.4467 17.4237 20.5567 16.8397 20.5625 16.25C20.5625 15.275 20.5625 15 20.5625 12.5C20.5625 10 20.5625 9.725 20.5625 8.75C20.5629 8.15975 20.4526 7.57465 20.2375 7.025V7.0375ZM13 17.275C12.3735 17.275 11.7532 17.1514 11.1746 16.9113C10.5959 16.6712 10.0704 16.3192 9.62798 15.8757C9.18557 15.4321 8.83503 14.9056 8.59643 14.3264C8.35783 13.7471 8.23586 13.1265 8.2375 12.5C8.2375 11.5551 8.51787 10.6314 9.04311 9.84586C9.56835 9.06034 10.3148 8.44833 11.1881 8.08729C12.0613 7.72625 13.0221 7.63243 13.9487 7.81769C14.8753 8.00295 15.7261 8.45896 16.3934 9.12801C17.0607 9.79706 17.5144 10.649 17.6973 11.5761C17.8801 12.5032 17.7838 13.4637 17.4204 14.336C17.0571 15.2083 16.4431 15.9532 15.6562 16.4764C14.8694 16.9995 13.9449 17.2775 13 17.275ZM18 8.6625C17.7237 8.63325 17.468 8.50278 17.2821 8.29621C17.0963 8.08965 16.9934 7.82162 16.9934 7.54375C16.9934 7.26588 17.0963 6.99785 17.2821 6.79129C17.468 6.58472 17.7237 6.45425 18 6.425C18.2763 6.45425 18.532 6.58472 18.7179 6.79129C18.9037 6.99785 19.0066 7.26588 19.0066 7.54375C19.0066 7.82162 18.9037 8.08965 18.7179 8.29621C18.532 8.50278 18.2763 8.63325 18 8.6625Z" fill="#2C7865"/>
</svg>
