<svg width="16" height="16" viewBox="0 0 16 16" fill="none" xmlns="http://www.w3.org/2000/svg">
<g clip-path="url(#clip0_243_891)">
<path d="M8.61463 11.058L6.1673 13.5053C5.67483 13.9645 5.02327 14.2145 4.35002 14.2026C3.67678 14.1907 3.03447 13.9178 2.55855 13.4415C2.08264 12.9651 1.81032 12.3226 1.79901 11.6493C1.78771 10.9761 2.03831 10.3247 2.49797 9.83266L2.49663 9.834L4.94397 7.38666C5.09254 7.22162 5.17209 7.00584 5.16621 6.78385C5.16032 6.56186 5.06945 6.3506 4.91234 6.19366C4.75523 6.03672 4.54387 5.94607 4.32187 5.94043C4.09987 5.93479 3.88418 6.01458 3.7193 6.16333L3.71997 6.16266L1.27263 8.61C0.494906 9.42891 0.0679674 10.5193 0.0828984 11.6486C0.0978294 12.7778 0.553448 13.8566 1.35255 14.6546C2.15166 15.4527 3.23099 15.9069 4.36027 15.9204C5.48956 15.9338 6.57941 15.5055 7.3973 14.7267L7.3953 14.728L9.84263 12.2807C9.99121 12.1156 10.0708 11.8998 10.0649 11.6778C10.059 11.4559 9.96812 11.2446 9.811 11.0877C9.65389 10.9307 9.44253 10.8401 9.22054 10.8344C8.99854 10.8288 8.78285 10.9086 8.61796 11.0573L8.61863 11.0567L8.61463 11.058ZM16.0046 4.326C16.0042 3.4699 15.7501 2.63313 15.2742 1.92147C14.7983 1.20981 14.1222 0.655204 13.3311 0.32777C12.5401 0.000335554 11.6698 -0.0852312 10.8302 0.0818862C9.99055 0.249004 9.21931 0.661302 8.61397 1.26666L6.16663 3.714C6.07923 3.79268 6.00876 3.88832 5.9595 3.99511C5.91024 4.1019 5.88323 4.21759 5.88012 4.33515C5.877 4.45271 5.89784 4.56967 5.94137 4.67892C5.9849 4.78816 6.05021 4.88741 6.13332 4.97061C6.21643 5.05381 6.3156 5.11923 6.4248 5.16287C6.534 5.20652 6.65094 5.22749 6.7685 5.2245C6.88606 5.22151 7.00179 5.19463 7.10863 5.14549C7.21547 5.09635 7.31119 5.02598 7.38997 4.93866L7.39063 4.938L9.83797 2.49066C10.3304 2.03145 10.982 1.78145 11.6552 1.79336C12.3285 1.80527 12.9708 2.07818 13.4467 2.55453C13.9226 3.03088 14.1949 3.67343 14.2063 4.34669C14.2176 5.01994 13.967 5.67128 13.5073 6.16333L13.5086 6.162L11.0613 8.60933C10.9739 8.68801 10.9034 8.78366 10.8542 8.89044C10.8049 8.99723 10.7779 9.11292 10.7748 9.23048C10.7717 9.34804 10.7925 9.465 10.836 9.57425C10.8796 9.6835 10.9449 9.78274 11.028 9.86594C11.1111 9.94914 11.2103 10.0146 11.3195 10.0582C11.4287 10.1019 11.5456 10.1228 11.6632 10.1198C11.7807 10.1168 11.8965 10.09 12.0033 10.0408C12.1101 9.99168 12.2059 9.92131 12.2846 9.834L12.2853 9.83333L14.7326 7.386C15.1363 6.98662 15.4565 6.51106 15.6749 5.98692C15.8932 5.46277 16.0053 4.90047 16.0046 4.33266V4.326Z" fill="#8C8C8C"/>
<path d="M4.94132 11.0613C5.09799 11.218 5.31399 11.3147 5.55332 11.3147C5.79265 11.3147 6.00865 11.218 6.16532 11.0613L11.06 6.16667C11.2086 6.00162 11.2881 5.78584 11.2822 5.56385C11.2763 5.34186 11.1855 5.1306 11.0284 4.97366C10.8712 4.81672 10.6599 4.72608 10.4379 4.72043C10.2159 4.71479 10.0002 4.79458 9.83532 4.94333L9.83599 4.94267L4.94132 9.83733C4.78466 9.994 4.68799 10.21 4.68799 10.4493C4.68799 10.6887 4.78466 10.9047 4.94132 11.0613Z" fill="#8C8C8C"/>
</g>
<defs>
<clipPath id="clip0_243_891">
<rect width="16" height="16" fill="white"/>
</clipPath>
</defs>
</svg>
