<svg width="26" height="25" viewBox="0 0 26 25" fill="none" xmlns="http://www.w3.org/2000/svg">
<path d="M23.6514 0.000174786H2.34859C2.10913 -0.00313094 1.87135 0.0404836 1.64885 0.128528C1.42635 0.216572 1.22347 0.347321 1.05181 0.513308C0.880145 0.679294 0.74306 0.877268 0.64838 1.09592C0.5537 1.31457 0.50328 1.54963 0.5 1.78765V23.2123C0.50328 23.4504 0.5537 23.6854 0.64838 23.9041C0.74306 24.1227 0.880145 24.3207 1.05181 24.4867C1.22347 24.6527 1.42635 24.7834 1.64885 24.8715C1.87135 24.9595 2.10913 25.0031 2.34859 24.9998H23.6514C23.8909 25.0031 24.1286 24.9595 24.3511 24.8715C24.5737 24.7834 24.7765 24.6527 24.9482 24.4867C25.1199 24.3207 25.2569 24.1227 25.3516 23.9041C25.4463 23.6854 25.4967 23.4504 25.5 23.2123V1.78765C25.4967 1.54963 25.4463 1.31457 25.3516 1.09592C25.2569 0.877268 25.1199 0.679294 24.9482 0.513308C24.7765 0.347321 24.5737 0.216572 24.3511 0.128528C24.1286 0.0404836 23.8909 -0.00313094 23.6514 0.000174786ZM8.083 20.9249H4.31036V9.67504H8.083V20.9249ZM6.19668 8.10006C5.67639 8.10006 5.1774 7.89462 4.8095 7.52893C4.4416 7.16324 4.23491 6.66725 4.23491 6.15009C4.23491 5.63292 4.4416 5.13694 4.8095 4.77125C5.1774 4.40556 5.67639 4.20012 6.19668 4.20012C6.47296 4.16897 6.75274 4.19618 7.0177 4.27997C7.28266 4.36375 7.52683 4.50222 7.73423 4.68631C7.94162 4.8704 8.10755 5.09595 8.22117 5.3482C8.33478 5.60045 8.39351 5.87371 8.39351 6.15009C8.39351 6.42646 8.33478 6.69972 8.22117 6.95197C8.10755 7.20423 7.94162 7.42978 7.73423 7.61387C7.52683 7.79795 7.28266 7.93642 7.0177 8.02021C6.75274 8.10399 6.47296 8.1312 6.19668 8.10006ZM21.6896 20.9249H17.917V14.8875C17.917 13.375 17.3763 12.3875 16.0055 12.3875C15.5813 12.3906 15.1682 12.5228 14.822 12.7665C14.4757 13.0101 14.2129 13.3533 14.0689 13.75C13.9705 14.0438 13.9279 14.3532 13.9432 14.6625V20.9124H10.1705C10.1705 20.9124 10.1705 10.6875 10.1705 9.66254H13.9432V11.25C14.2859 10.6589 14.7843 10.1719 15.3849 9.84154C15.9854 9.51115 16.6652 9.34986 17.3511 9.37504C19.8662 9.37504 21.6896 10.9875 21.6896 14.45V20.9249Z" fill="#2C7865"/>
</svg>
