<svg width="201" height="168" viewBox="0 0 201 168" fill="none" xmlns="http://www.w3.org/2000/svg">
<path d="M200.5 34.2142H0.5V167.128H200.5V34.2142Z" fill="#FF9800"/>
<mask id="mask0_243_797" style="mask-type:luminance" maskUnits="userSpaceOnUse" x="0" y="34" width="201" height="134">
<path d="M200.5 34.2142H0.5V167.128H200.5V34.2142Z" fill="white"/>
</mask>
<g mask="url(#mask0_243_797)">
<path d="M20.8533 71.9493C25.7113 71.9493 29.6495 68.0111 29.6495 63.1531C29.6495 58.2951 25.7113 54.3569 20.8533 54.3569C15.9953 54.3569 12.0571 58.2951 12.0571 63.1531C12.0571 68.0111 15.9953 71.9493 20.8533 71.9493Z" stroke="white" stroke-width="3" stroke-miterlimit="10"/>
<path d="M29.6497 81.2695C34.5077 81.2695 38.4459 77.3313 38.4459 72.4733C38.4459 67.6153 34.5077 63.6771 29.6497 63.6771C24.7917 63.6771 20.8535 67.6153 20.8535 72.4733C20.8535 77.3313 24.7917 81.2695 29.6497 81.2695Z" stroke="white" stroke-width="3" stroke-miterlimit="10"/>
<path d="M143.712 90.3382C152.462 90.3382 159.555 83.2454 159.555 74.496C159.555 65.7466 152.462 58.6538 143.712 58.6538C134.963 58.6538 127.87 65.7466 127.87 74.496C127.87 83.2454 134.963 90.3382 143.712 90.3382Z" stroke="white" stroke-width="3" stroke-miterlimit="10"/>
<path d="M162.789 100.098C171.539 100.098 178.632 93.0048 178.632 84.2554C178.632 75.506 171.539 68.4132 162.789 68.4132C154.04 68.4132 146.947 75.506 146.947 84.2554C146.947 93.0048 154.04 100.098 162.789 100.098Z" stroke="white" stroke-width="3" stroke-miterlimit="10"/>
<path d="M136.104 67.478C148.529 67.478 158.602 57.4052 158.602 44.9798C158.602 32.5544 148.529 22.4816 136.104 22.4816C123.678 22.4816 113.605 32.5544 113.605 44.9798C113.605 57.4052 123.678 67.478 136.104 67.478Z" stroke="white" stroke-width="3" stroke-miterlimit="10"/>
<path d="M29.6495 178.861C42.075 178.861 52.1477 168.788 52.1477 156.363C52.1477 143.937 42.075 133.865 29.6495 133.865C17.2241 133.865 7.15137 143.937 7.15137 156.363C7.15137 168.788 17.2241 178.861 29.6495 178.861Z" stroke="white" stroke-width="3" stroke-miterlimit="10"/>
<path d="M171.351 173.963C183.776 173.963 193.849 163.89 193.849 151.464C193.849 139.039 183.776 128.966 171.351 128.966C158.925 128.966 148.853 139.039 148.853 151.464C148.853 163.89 158.925 173.963 171.351 173.963Z" stroke="white" stroke-width="3" stroke-miterlimit="10"/>
</g>
<path d="M74.476 52.9351C74.476 52.9351 73.9781 93.2959 66.3291 99.0541C58.6802 104.812 132.591 115.183 132.591 115.183C132.591 115.183 126.634 86.8035 125.637 52.1095C124.641 17.4154 74.476 52.9351 74.476 52.9351Z" fill="#350313"/>
<path d="M185.423 167.128H16.603C23.5429 139.467 27.6722 123.811 27.6722 123.811C29.9513 110.132 40.4984 105.709 40.4984 105.709L52.4858 101.254L68.458 96.2854L74.3258 94.4584C75.7509 94.017 77.0883 93.331 78.2781 92.431C80.7231 90.6029 82.4472 87.973 83.1485 85.0018H83.1532C83.2091 84.7548 83.2604 84.5031 83.3024 84.2515C83.3117 84.1769 83.3256 84.1023 83.3397 84.0231C83.3536 83.9485 83.3629 83.8693 83.3722 83.7947L83.3862 83.6828C83.4142 83.5011 83.4376 83.3193 83.4514 83.1329C83.4701 82.9045 83.4841 82.6715 83.4934 82.4385C83.4981 82.2893 83.5027 82.1402 83.5027 81.991V64.5134H116.174V81.991C116.174 83.9491 116.615 85.8821 117.463 87.6466C118.312 89.4111 119.547 90.9619 121.077 92.184C121.15 92.2485 121.226 92.3092 121.306 92.3657C122.521 93.2953 123.89 94.0036 125.351 94.4584L129.35 95.7028L153.413 103.193L161.504 105.709C165.233 107.434 168.08 110.333 170.187 113.306C172.432 116.516 174.155 120.062 175.291 123.811H175.342C175.342 123.811 178.59 139.262 185.423 167.128Z" fill="#F8B997"/>
<path d="M95.8962 83.103C107.548 81.072 116.173 67.5721 116.173 67.5721C116.173 67.5721 104.617 66.6207 97.3899 64.5151H83.5017V81.9901C83.5006 82.9986 83.3824 84.0037 83.1497 84.985L83.1494 85.0033C83.1494 85.0033 84.2439 85.1341 95.8962 83.103Z" fill="#E59876"/>
<path d="M125.417 33.3803C124.745 33.2594 124.054 33.2857 123.392 33.4573C120.786 17.174 110.797 5.08214 99.0517 5.25691C87.2742 5.43215 77.6265 17.8834 75.5416 34.3048C74.7442 34.0418 73.8919 33.9916 73.0691 34.1592C69.4431 34.9364 67.4393 39.932 68.5935 45.3172C69.7073 50.514 73.3545 54.1617 76.867 53.7131C80.5108 66.453 85.4136 74.6758 100.291 75.7461C111.366 76.5428 119.711 65.853 122.775 53.0594C126.103 52.9708 129.316 49.3445 130.223 44.4001C131.217 38.983 129.065 34.0492 125.417 33.3803Z" fill="url(#paint0_linear_243_797)"/>
<path d="M128.382 43.1476C128.741 39.9629 127.996 37.2643 126.717 37.1203C125.439 36.9762 124.112 39.4412 123.753 42.626C123.394 45.8107 124.139 48.5093 125.418 48.6533C126.696 48.7974 128.023 46.3324 128.382 43.1476Z" fill="#E59876"/>
<path d="M73.9418 49.4193C75.2153 49.2373 75.8801 46.5178 75.4266 43.3451C74.9731 40.1724 73.5731 37.748 72.2996 37.93C71.026 38.1121 70.3613 40.8316 70.8148 44.0043C71.2683 47.177 72.6683 49.6014 73.9418 49.4193Z" fill="#E59876"/>
<path d="M75.5422 34.3047C75.8524 35.9354 76.0276 37.5531 76.182 39.1691C76.3279 40.7845 76.4305 42.3965 76.5188 44.0062C76.6079 45.6156 76.6593 47.2255 76.7223 48.8351L76.8675 53.713C76.1883 52.2027 75.703 50.6124 75.4234 48.9801C75.1256 47.3656 74.9372 45.7328 74.8595 44.0929C74.7737 42.4588 74.7804 40.8212 74.8797 39.1879C74.9658 37.5447 75.1874 35.9115 75.5422 34.3047Z" fill="#E59876"/>
<path d="M123.532 33.5906C123.935 35.186 124.205 36.8119 124.34 38.4518C124.488 40.0814 124.543 41.7181 124.506 43.3541C124.477 44.9955 124.337 46.6332 124.088 48.2559C123.857 49.8957 123.419 51.4998 122.785 53.0297L122.785 48.1496C122.8 46.5389 122.804 44.9281 122.845 43.3168C122.885 41.7052 122.94 40.0908 123.038 38.4717C123.144 36.852 123.271 35.2297 123.532 33.5906Z" fill="#E59876"/>
<path d="M89.3721 40.0594C91.511 40.0594 91.5145 36.7353 89.3721 36.7353C87.2332 36.7353 87.2297 40.0594 89.3721 40.0594Z" fill="#38101B"/>
<path d="M92.1974 38.3973C91.6085 38.0028 90.9762 37.6775 90.313 37.4278C89.7431 37.2274 89.1204 37.2372 88.5572 37.4555C88.2665 37.5651 87.992 37.7137 87.7414 37.8974C87.6081 37.9877 87.4815 38.0913 87.3538 38.1962C87.2883 38.2469 87.231 38.3065 87.1676 38.3606C87.0954 38.427 87.015 38.5001 86.9351 38.5647C86.6112 38.8281 86.2329 39.0163 85.8274 39.1156C85.626 39.162 85.4188 39.1779 85.2127 39.1629C85.0054 39.1535 84.8092 39.0661 84.6636 38.9182C84.8352 38.933 85.0081 38.9137 85.1722 38.8613C85.3363 38.8088 85.4884 38.7244 85.6196 38.6128C85.8887 38.4285 86.1266 38.2025 86.3245 37.9432C86.3753 37.8794 86.4188 37.8175 86.4686 37.7471C86.5308 37.668 86.5903 37.5857 86.6579 37.5105C86.7898 37.3546 86.9333 37.209 87.0872 37.0748C87.4034 36.7921 87.7689 36.57 88.1654 36.4194C88.5728 36.2623 89.0107 36.2004 89.4458 36.2384C89.8808 36.2764 90.3014 36.4133 90.6754 36.6388C91.3499 37.0564 91.8808 37.6698 92.1974 38.3973Z" fill="#38101B"/>
<path d="M111.034 40.0594C113.173 40.0594 113.177 36.7353 111.034 36.7353C108.895 36.7353 108.892 40.0594 111.034 40.0594Z" fill="#38101B"/>
<path d="M108.208 38.3972C108.525 37.6699 109.056 37.0564 109.73 36.6388C110.104 36.4133 110.525 36.2764 110.96 36.2384C111.395 36.2004 111.833 36.2623 112.241 36.4194C112.637 36.57 113.002 36.7921 113.319 37.0748C113.473 37.209 113.616 37.3546 113.748 37.5105C113.816 37.5857 113.875 37.668 113.937 37.7471C113.987 37.8175 114.031 37.8794 114.081 37.9432C114.279 38.2025 114.517 38.4285 114.786 38.6128C114.918 38.7244 115.07 38.8088 115.234 38.8613C115.398 38.9137 115.571 38.933 115.742 38.9182C115.597 39.0661 115.401 39.1535 115.193 39.1629C114.987 39.1779 114.78 39.162 114.578 39.1156C114.173 39.0163 113.795 38.8281 113.471 38.5647C113.391 38.5001 113.31 38.427 113.238 38.3606C113.175 38.3065 113.118 38.2469 113.052 38.1962C112.924 38.0913 112.798 37.9877 112.664 37.8974C112.414 37.7137 112.139 37.5651 111.849 37.4555C111.285 37.2372 110.663 37.2274 110.093 37.4278C109.43 37.6775 108.797 38.0028 108.208 38.3972Z" fill="#38101B"/>
<path d="M76.147 48.0763C76.147 48.0763 79.5227 5.89976 109.572 14.4094C109.572 14.4094 123.908 26.2704 122.978 50.8685C122.978 50.8685 123.803 42.16 124.883 35.7372C124.883 35.7372 127.786 20.1541 122.204 11.4842C117.923 4.8366 110.636 3.50643 109.971 3.50643C109.971 3.50643 99.2113 -4.60901 86.8287 3.85264C81.4985 7.56352 77.7361 13.1214 76.271 19.4488C75.034 24.7964 74.4316 30.2711 74.4764 35.7597L76.147 48.0763Z" fill="#350313"/>
<path d="M111.264 14.4094C111.264 14.4094 117.044 26.5034 118.552 32.948C120.06 39.3925 122.458 49.392 119.218 62.8793C115.978 76.3666 122.961 78.3018 122.961 78.3018" stroke="#350313" stroke-width="1.18869" stroke-miterlimit="10"/>
<path d="M80.6094 34.4501C81.7335 33.7896 82.9284 33.2578 84.1715 32.8648C84.7768 32.6633 85.3874 32.4898 86.001 32.3333L86.9017 32.1155C87.176 32.0524 87.4472 31.9784 87.7152 31.8936C88.8038 31.5602 89.8535 31.1109 90.8463 30.5535C91.1024 30.4131 91.3533 30.2603 91.6086 30.1048C91.8732 29.9356 92.1518 29.7632 92.4298 29.6002C92.9984 29.2637 93.5911 28.9695 94.203 28.7201C93.914 29.3143 93.5816 29.8864 93.2085 30.4317C93.0248 30.7001 92.8436 30.9615 92.6447 31.2217C92.4339 31.4949 92.205 31.7538 91.9597 31.9965C90.9587 32.9817 89.7324 33.7077 88.3872 34.1114C88.0491 34.2055 87.7092 34.2941 87.3635 34.3541C87.0069 34.4121 86.7262 34.4519 86.4016 34.4898C85.7725 34.5641 85.1405 34.6214 84.5031 34.6507C83.2018 34.7302 81.8957 34.6629 80.6094 34.4501Z" fill="#38101B"/>
<path d="M119.504 34.3579C118.221 34.5879 116.916 34.6727 115.614 34.6107C114.976 34.59 114.343 34.5412 113.713 34.4753C113.388 34.4418 113.107 34.4058 112.749 34.3526C112.403 34.2972 112.062 34.2132 111.723 34.1236C110.372 33.738 109.136 33.0285 108.122 32.0569C107.874 31.8174 107.641 31.5617 107.427 31.2913C107.224 31.0338 107.04 30.7749 106.852 30.509C106.472 29.9687 106.132 29.4011 105.835 28.8109C106.45 29.052 107.047 29.3382 107.62 29.6671C107.9 29.8263 108.181 29.995 108.448 30.1606C108.705 30.3127 108.958 30.4621 109.216 30.599C110.216 31.1431 111.272 31.5782 112.365 31.897C112.634 31.9778 112.906 32.0481 113.181 32.108L114.085 32.3137C114.7 32.4619 115.313 32.6272 115.921 32.8206C117.17 33.1969 118.371 33.7126 119.504 34.3579Z" fill="#38101B"/>
<path d="M110.836 62.6965C110.836 62.6965 105.252 56.2111 99.3143 57.5314C93.3762 58.8517 90.874 64.9231 90.874 64.9231L110.836 62.6965Z" fill="#D7645D"/>
<path d="M105.765 51.1309C104.185 52.7316 102.097 53.7317 99.8597 53.9589C99.9292 53.9705 99.9988 53.9763 100.068 53.9821H99.651C99.7206 53.9763 99.7901 53.9705 99.8597 53.9589C97.6588 53.7393 95.6004 52.7694 94.0298 51.212L105.765 51.1309Z" fill="#E59876"/>
<path d="M185.423 167.128H16.603C23.5429 139.467 27.6722 123.811 27.6722 123.811C29.9513 110.132 40.4984 105.709 40.4984 105.709L52.4858 101.254L68.458 96.2854L74.3258 94.4584C75.7509 94.017 77.0883 93.331 78.2781 92.431C80.7231 90.6029 82.4472 87.973 83.1485 85.0018H83.1532C83.2091 84.7548 83.2604 84.5031 83.3024 84.2515C83.3117 84.1769 83.3256 84.1023 83.3397 84.0231C83.3536 83.9485 83.3629 83.8693 83.3722 83.7947L83.3862 83.6829C83.4142 83.5011 83.4376 83.3193 83.4514 83.1329C83.4701 82.9045 83.4841 82.6715 83.4934 82.4385C83.4981 82.2893 83.5027 82.1402 83.5027 81.991H116.174C116.174 83.9491 116.615 85.8821 117.463 87.6466C118.312 89.4111 119.547 90.962 121.077 92.184C121.15 92.2485 121.226 92.3092 121.306 92.3657C122.521 93.2953 123.89 94.0037 125.351 94.4584L129.35 95.7028L153.413 103.193L161.504 105.709C165.233 107.434 168.08 110.333 170.187 113.306C172.432 116.516 174.155 120.062 175.291 123.811H175.342C175.342 123.811 178.59 139.262 185.423 167.128Z" fill="#A0C2BA"/>
<path d="M114.357 81.9921C114.53 83.6673 114.631 85.3329 114.713 86.9967L114.927 91.9797C114.944 92.8099 114.987 93.638 115.019 94.4668L115.12 96.9526C115.203 98.6101 115.286 100.263 115.421 101.942C114.853 100.354 114.456 98.7101 114.236 97.0379C113.997 95.3752 113.849 93.7009 113.79 92.0221C113.736 90.3459 113.738 88.6698 113.828 86.9962C113.899 85.3187 114.076 83.6474 114.357 81.9921Z" fill="white"/>
<path d="M108.733 81.9921C108.906 83.6673 109.007 85.3329 109.089 86.9967L109.303 91.9797C109.32 92.8099 109.363 93.638 109.395 94.4668L109.496 96.9526C109.579 98.6101 109.662 100.263 109.797 101.942C109.229 100.354 108.832 98.7101 108.612 97.0379C108.373 95.3752 108.225 93.7009 108.166 92.0221C108.112 90.3459 108.114 88.6698 108.204 86.9962C108.275 85.3187 108.452 83.6474 108.733 81.9921Z" fill="white"/>
<path d="M103.442 81.9921C103.615 83.6673 103.716 85.3329 103.798 86.9967L104.012 91.9797C104.029 92.8099 104.072 93.638 104.104 94.4668L104.205 96.9526C104.288 98.6101 104.371 100.263 104.506 101.942C103.938 100.354 103.541 98.7101 103.321 97.0379C103.082 95.3752 102.934 93.7009 102.875 92.0221C102.821 90.3459 102.823 88.6698 102.913 86.9962C102.984 85.3187 103.161 83.6474 103.442 81.9921Z" fill="white"/>
<path d="M86.851 81.9923C87.1321 83.6476 87.3086 85.319 87.3794 86.9965C87.4701 88.67 87.4717 90.3461 87.4172 92.0223C87.359 93.7011 87.2101 95.3755 86.9711 97.0382C86.7518 98.7103 86.3547 100.354 85.7866 101.942C85.9218 100.263 86.005 98.6103 86.0874 96.9529L86.1889 94.4671C86.2201 93.6382 86.2637 92.8101 86.2808 91.9799L86.4948 86.997C86.5762 85.3329 86.6774 83.6676 86.851 81.9923Z" fill="white"/>
<path d="M92.475 81.9923C92.756 83.6476 92.9324 85.319 93.0033 86.9965C93.0941 88.67 93.0957 90.3461 93.0412 92.0223C92.983 93.7011 92.8341 95.3755 92.5952 97.0382C92.3759 98.7103 91.9788 100.354 91.4106 101.942C91.5458 100.263 91.6289 98.6103 91.7113 96.9529L91.8129 94.4671C91.8442 93.6382 91.8877 92.8101 91.9047 91.9799L92.1187 86.997C92.2002 85.3329 92.3014 83.6676 92.475 81.9923Z" fill="white"/>
<path d="M97.766 81.9923C98.047 83.6476 98.2235 85.319 98.2943 86.9965C98.3851 88.67 98.3867 90.3461 98.3322 92.0223C98.274 93.7011 98.1251 95.3755 97.8862 97.0382C97.6668 98.7103 97.2697 100.354 96.7017 101.942C96.8368 100.263 96.9199 98.6103 97.0023 96.9529L97.1039 94.4671C97.135 93.6382 97.1786 92.8101 97.1957 91.9799L97.4097 86.997C97.4912 85.3329 97.5924 83.6676 97.766 81.9923Z" fill="white"/>
<path d="M44.1612 148.187L43.793 167.128H43.1079L44.1612 148.187Z" fill="white"/>
<path d="M157.892 167.128H157.207L156.838 148.187L157.892 167.128Z" fill="white"/>
<defs>
<linearGradient id="paint0_linear_243_797" x1="100.718" y1="-1.52891" x2="98.7891" y2="60.6395" gradientUnits="userSpaceOnUse">
<stop stop-color="#577FFF"/>
<stop offset="0.01615" stop-color="#5C81FC"/>
<stop offset="0.18886" stop-color="#8B92DD"/>
<stop offset="0.36124" stop-color="#B2A0C4"/>
<stop offset="0.5303" stop-color="#D1ABB0"/>
<stop offset="0.6952" stop-color="#E6B3A2"/>
<stop offset="0.854" stop-color="#F4B79A"/>
<stop offset="1" stop-color="#F8B997"/>
</linearGradient>
</defs>
</svg>
